# xmcd
#
# Track frame offsets:
#	182
#	13092
#	35082
#	40765
#	51890
#	63450
#	79880
#	96600
#	113715
#	155765
#	167612
#	188967
#	198810
#	218152
#	234210
#	254540
#
# Disc length: 3550 seconds
#
# Revision: 3
# Processed by: cddbd v1.4PL0 Copyright (c) Steve Scherf et al.
# Submitted via: audiograbber 1.81.03
#
DISCID=de0ddc10
DTITLE=Various Artist - Folk Heritage
DYEAR=1991
DGENRE=Folk
TTITLE0=Chilli Willi and The Red Hot Peppers - Fiddle Diddle
TTITLE1=Tim Hart and Maddy Prior - The Dalesman's Litany
TTITLE2=Steeleye Span - A Calling On Song
TTITLE3=Martin Carthy - Handsome Polly-O
TTITLE4=Steeleye Span - Copshawholme Fair
TTITLE5=Ian Matthews - Sing Me Back Home
TTITLE6=Sandy Denny - My Ramblin' Boy
TTITLE7=Tim Moore - A Fool Like You
TTITLE8=Martin Carthy - Famous Flower of Serving Men
TTITLE9=Tim Hart and Maddy Prior - Adieu Sweet Lovely Nancy
TTITLE10=Steeleye Span - The Blacksmith
TTITLE11=Shirley Collins - Just As The Tide Was Flowing
TTITLE12=Tim Moore - Rock And Roll Love Letter
TTITLE13=Sandy Denny - The Last Thing On My Mind
TTITLE14=Steeleye Span - The Lark in the Morning
TTITLE15=Tim Hart and Maddy Prior - A Wager A Wager
EXTD=YEAR: 1991 ID3G: 80
EXTT0=
EXTT1=
EXTT2=
EXTT3=
EXTT4=
EXTT5=
EXTT6=
EXTT7=
EXTT8=
EXTT9=
EXTT10=
EXTT11=
EXTT12=
EXTT13=
EXTT14=
EXTT15=
PLAYORDER=
